<?xml version="1.0" encoding="UTF-8"?>
<svg version="1.1" viewBox="0 0 1421 1165" width="1421" height="1165" xmlns="http://www.w3.org/2000/svg">
<path transform="translate(0)" d="m0 0h1421v1165h-1421z" fill="#0E1B2C"/>
<path transform="translate(327,106)" d="m0 0h182l54 1v10l-87 1-145 1-15 3-10 4-8 6-8 7-5 7-6 14-3 15-1 352-184 1 1 3 6 4 66 1 112 1 1 7-168 1v2h167v89l-16 1h-122l8 17 2 3-1 7-19 39-2 4 150 1v92l-96 1-86 2h-15v3l144-1 58-1 1-96h16l1 17 1 132 2 12 4 9 2 3v3l4 2 4 4 14 8 362 181 9 3h16l15-5 364-182 8-6 6-5 8-16 1-5v-691l-3-10-9-12-9-6-6-2-142-1-86-1-1-2v-6h-7l-6-2-3-3v-5l250 2 12 4 11 7 8 8 6 10 4 11 1 6v695l-5 16-5 9-11 12-9 6-27 14-24 12-23 11-45 23-34 17-19 10-90 45-19 10-58 29-19 10-19 9-11 3h-24l-16-5-32-16-19-10-29-15-30-15-19-10-124-62-19-10-58-29-19-10-25-13-8-8-5-4-7-11-4-10-2-7v-46l-208 1-2 6h204l1 1 1 33 2 11 5 13 9 14 2 1v3l5 2 8 6 26 13 19 10 30 15 19 10 138 69 19 10 80 40 19 10 19 9 18 6h26l15-4 26-12 126-63 19-10 48-24 19-10 74-37 23-11 40-20 12-9 8-9 7-13 4-15 1-5 2-42 206-1-14-29-10-19-12-23-7-14-158-1 1 65h139v2l-9 1h-135l-1-29v-48l31-1 82-2 44-1v-2h-53l-95-1-9-1v-91l22-1 47-1h75v-3l-143-1v-8h149l3-10 12-24 12-22 17-33 2-4h-196l-1-104-1-200-1-47-4-13-5-9-11-12-10-7-13-5-24-1-189-1-29-1 1-11h236l15 3 16 8 8 6 9 9 8 14 4 13 1 6v136l-1 175 98-2h123l-2 9-14 30-30 60-10 19-11 22-8 14-10 21-3 5 1 6 12 24 10 19 13 26 10 19 12 24 10 19 18 35 1 6-9 1h-211v60l-1 119-6 16-8 10-9 7-17 8-4 1-256 2-29 15-78 39-14 5-7 2h-30l-15-4-25-12-72-36-17-9-252-2-15-4-13-7-10-9-7-12-4-13v-164l1-7h-214l3-11 14-29 9-20 16-34 15-33 17-35 7-16-2-9-32-72-15-32-15-33-16-36v-3h213l-1-35v-277l4-16 8-14 13-13 11-7 14-5z" fill="#F1F0E3"/>
<path transform="translate(599,286)" d="m0 0h54l18 3 19 6 13 7 15 7 9 5 7 6 1 4 15 10 20 14 17 12 4 3v3l-5 1h-17l-9-8-14-10-18-13-18-11-16-10 1-3 9 2h7l-12-3-21-4-6-2-19-2h-47l-26 2-27 4-30 6-27 8-24 10-5 2-5 5v6l15 7 24 6 35 5 26 2v8l-1 1v27l3 13 7 19 12 23 8 11 6 7 6 5 14 5 11 3 24 3 29 2 137 3 15 1 4 1 1-12 3-16 6-17 5-9 8-11 8-8 14-9 11-5 11-3 7-1h22l15 3 13 5 11 7 12 10-4-5-10-9-7-4v-2l-9-3v-2l-20-2h-26l-11 2h-8v2l-7 1v2h-3v2h-3v2l-11 8h-3l-2 5-4 4-1 3h-3l-1 5-7 14-1 3-2 1-6 32-1 2h-30l2-6 9-19 4-14 2-13v-19l-4-18-5-10-7-9-8-8v-3l8 1 26 1 57 1 40 2 30 3 18 3 7 4 5 5 12 10 20 12 11 5 23 7 10 2-3-9-7-9-13-9-17-10-24-10-17-4-7-1 1 5-19-4-23-3-43-3-100-1 1-4 5-3 4-1h50l40 1 34 2 37 4 27 5 23 7 19 8 15 8 13 9 10 8 14 12 9 9 8 12v12l-7 28-1 8-6-2 3-11 8-28 1-2-4 1-3-1-39-2-14-2-42-2v-4l43 1 35 2h11v-2l-23-3-22-1-49-1-3-3 6 11 3 4v2l4 2 7 13v3h-10l-7-1-8-17-10-14-8-7-10-6-11-5-7-2-8-1h-15l-15 3-12 4-4 4-6 4-9 8-7 10-7 14-4 15-1 9-1 20h-194l-78-1-48-1-18-1-1-3-1-22-5-23-6-15v-2l-4-2-7-8-9-8-10-6-16-5h-29l-12 3-13 6-7-3v3l4 1-3 5-7 6-7 9-8 15-4 14-1 7-1 20h-14l-11-2-5-8-2-9-5-2-12-7v-4l9 3-8-16-4-14v-14l8-10 4-10-6-1-2-2v-7l2-2h12l-1 2h-11l1 5h12l-1 3-4 2 1 3-6 14-4 1v2h5v-2h2l1-7 7-10 10-9 3-2 6 1 22 12 13 8h2l-21-12-18-10v-11l-5-2-17-2 6-7 4-5 7-3 23-4h3v-2h-31l-6-3-3-4v-4h20l22-3 24-6 53-18 28-10 16-6 30-8 33-6 32-4z" fill="#F1E4C0"/>
<path transform="translate(563,372)" d="m0 0h138l7 2 1 1 15 2 4 7 10-1 5-4-1 4 4-1v-8h17l29 1 13 12 8 13 3 8 3 16v15l-3 19-6 17-4 8-1 4-6 5h-92l-49-3-30-3-14-4-11-6-8-7-10-14-11-20-7-16-4-14-1-7v-24z" fill="#F1E4C0"/>
<path transform="translate(847,122)" d="m0 0h13l9 2 1 5h213l13 2 12 6 9 7 7 8 6 12 2 10v689l-4 14-5 10-11 12-8 5-17 9-23 11-41 20-15 8-23 11-236 118-25 11-4 1h-18l-13-4-28-14-14-8-17-8-19-10-17-9-23-11-17-8-9-4-18-10-10-4-43-22-9-4-30-15-19-10-54-27-23-11-18-9v-2l-5-1-8-5-10-9-8-16v-164h8l1 17 1 132 2 12 4 9 2 3v3l4 2 4 4 14 8 362 181 9 3h16l15-5 364-182 8-6 6-5 8-16 1-5v-691l-3-10-9-12-9-6-6-2-142-1-86-1-1-2v-6h-7l-6-2-3-3z" fill="#CD8E41"/>
<path transform="translate(276,905)" d="m0 0 5 3 12 11 27 14 23 11 41 20 126 63 26 12 1 4h-221l-14-4-10-6-8-8-6-10-2-6z" fill="#0E1B2C"/>
<path transform="translate(1139,905)" d="m0 0h3v104l-5 12-7 9-8 7-13 5-4 1h-223v-3l38-19 23-11 86-43 23-11 24-12 23-11 21-10 12-9z" fill="#0F1C2D"/>
<path transform="translate(604,578)" d="m0 0h45l17 48 19 53 20 56 7 19v2h-36l-5-11-8-23v-3l-36 1h-23l-2 9-12 35-3 2h-33l-2-5 19-1h12l3-10 12-34 7-2h24l32 1-1-4h-68l-6 20-8 24-1 1h-35l3-12 19-55 19-53 18-50z" fill="#F2F1E4"/>
<path transform="translate(423,572)" d="m0 0h43l17 3 12 5 10 8 5 8 3 10v22l-20 1h-13l-4-20-3-3-11-4-8-1h-20l-14 2-9 5-3 5-1 6v10l2 5 4 3v-15l3-5 8-6 7-2h26l12 3 7 4v1l-10-1h-34l-7 3-5 8-2 13 26 5 31 6 16 5 9 5 7 6 6 12 2 6v28l-4 13-5 9-8 8-14 7-18 4h-53l-15-3-15-8-7-9-4-10-1-9v-14h33l3 12 2 3v3l8 2-5-10v-5h4l5 15v3l42-1 11-4 4-5 1-2 2-17-9-2-8-3-43-7-18-5-7-4 1-2 27 6 40 7 11 4 3 2-4-5-8-3-19-4-38-6-18-6-8-5-6-8-4-9-1-6v-26l2-11 6-12 5-5 11-7 12-4z" fill="#F1F0E3"/>
<path transform="translate(802,364)" d="m0 0h50l40 1 34 2 37 4 27 5 23 7 19 8 15 8 13 9 10 8 14 12 9 9 8 12v12l-7 28-1 8-6-2 3-11 8-28 1-2-4 1-3-1-39-2-14-2-42-2v-4l43 1 35 2h11v-2l-23-3-22-1-49-1-3-3 6 11 3 4v2l4 2 7 13v3h-10l-7-1-8-17-10-14-8-7-10-6-11-5-7-2-8-1h-15l-15 3-12 4-4 4-6 4-9 8-7 10-7 14-4 15-1 9-1 20h-9l1-4-5-2v-3l-3-1 1-2h3l1-12 3-16 6-17 5-9 8-11 8-8 14-9 11-5 11-3 7-1h22l15 3 13 5 11 7 12 10-4-5-10-9-7-4v-2l-9-3v-2l-20-2h-26l-11 2h-8v2l-7 1v2h-3v2h-3v2l-11 8h-3l-2 5-4 4-1 3h-3l-1 5-7 14-1 3-2 1-6 32-1 2h-30l2-6 9-19 4-14 2-13v-19l-4-18-5-10-7-9-8-8v-3l8 1 26 1 57 1 40 2 30 3 18 3 7 4 5 5 12 10 20 12 11 5 23 7 10 2-3-9-7-9-13-9-17-10-24-10-17-4-7-1 1 5-19-4-23-3-43-3-100-1 1-4 5-3z" fill="#F1E4C0"/>
<path transform="translate(910,578)" d="m0 0h129v28l-1 1h-94v45h8v-39l58-1h36v-17l1-10h5v29l-3 4h-92v33h70l1 9v19l-52 1h-31l-1 47h7v-27l1-15h84v-28h5l1 27-2 6h-83v37h83v28h-130z" fill="#F2F1E4"/>
<path transform="translate(551,122)" d="m0 0h22v7l-16 8-3 3-85 1-140 1-10 4-7 5-7 8-4 10-1 106-1 336-1 25h-16l-1-470 4-12 7-12 8-8 12-7 10-3h229z" fill="#CE8F41"/>
<path transform="translate(744,578)" d="m0 0h126v28l-1 1h-90v45h8v-39h91v-29l5-1 1 1v34h-92v34l41-1h25v29l-49 1h-30v75h-34l-1-33z" fill="#F2F1E4"/>
<path transform="translate(967,209)" d="m0 0h9l11 3v77l5-11 3-9 4-1h15l4 1 1 2 3 1v44h15v-20h68l1 1v50l-1 51h-2l-1-5v-94h-62v17h26l1 7v31h-3l-1-34h-48l-1 3h-2l1-42h-6v-5l7 1v-5l-17 1-4 11-10 19-4 6-1 43h-2v-39l1-2h-4l-1-13v-86h-6l2 47v41l-2-4v-23l-5-1v2h-2v-58l-5 1v57l-1 16h-1v-70h-5l-1 88h6v-11h1l1 10h11l1 32h-11l-3-1 1-3 2 1v-12h2v12h3v-13h-12l-1 11-5 2v-8h-2v-2h-2v9l-3-1v-12l-6 1v17h-7v-44l-8-1v-47h-15v2h3v39h-4l-1-32-2 1v-6h-2v-2h3v-2h-21l-10-1 2 7v27l-1 37h-2v-72h-6l1 69 1 2h-2v2h-25v14l-3 3h-2v-4h-17v-10h-9l-3 6h2l-1 4-4 1v2l-5 1v-4h-9l-6-1v-26h-6v19l-3-1 1-71h2v49h6v-52h2v52h6v-55l-22 6-1 66h-1l-1-49-1-12-2 4v-6h3v-2l-7 2-1 57-3-1-1-7v-50l9-4 35-10 9 1 17 2v57h24v14l14 2v-74h63l1 3v16h14v2h-13l-2 30 12-1v20l5-1 1-3h8l-1-21v-67l16-8z" fill="#F2F1E4"/>
<path transform="translate(599,286)" d="m0 0h54l18 3 19 6 13 7 15 7 9 5 7 6 1 4 15 10 20 14 17 12 4 3v3l-5 1h-17l-9-8-14-10-18-13-18-11-16-10 1-3 9 2h7l-12-3-21-4-6-2-19-2h-47l-26 2-27 4-30 6-27 8-24 10-5 2-5 5v6l15 7 24 6 35 5 26 2v3h-11l-37-3-23-3-9-1h-55l-45 1h-19l4-2h3v-2h-31l-6-3-3-4v-4h20l22-3 24-6 53-18 28-10 16-6 30-8 33-6 32-4z" fill="#F0E3C0"/>
<path transform="translate(475,794)" d="m0 0h30l20 1 8 5 6 8 2 9v67l-4 11-9 8-10 3h-36v-1l-7-1z" fill="#CE8F41"/>
<path transform="translate(557,795)" d="m0 0h53l8 4 6 6 2 7-2 42-5 8-7 6v4h2l11 24 2 5v5l-3 1h-19v-2h21v-2l-3 1h-24l-12-30v-5h-10v2l4-1-1 34-2 1h-22v-97z" fill="#CD8E41"/>
<path transform="translate(803,794)" d="m0 0h14l4 4 16 36 6 12 1-51h22l-1 43-1 66-1 1h-21l-15-35-9-20v-6h-3l1 5v56l-4 1-18-1v-110z" fill="#CE8F41"/>
<path transform="translate(988,436)" d="m0 0 4 2v2h49l22 1 21 3 3 3v1h-12l-35-2-30-1-13-1v4h23l19 1 14 2 39 2 3 1v5l-5 12-7 19h-2v2h-6v2l5 1 7 3 10 1 5 3-2 6-12 2-12 1h-81l-1-5v-34l5-1 10 1-8-16-5-5-8-13z" fill="#CD8E41"/>
<path transform="translate(732,76)" d="m0 0h20l3 10 5 32v8h2l1-10 7-37 1-3h18l3 8 7 38 1 2 7-45 1-3h18v10l-16 82-1 2h-20l-4-15-5-26-2 5-7 35-1 1h-21l-3-11-11-61-3-15z" fill="#CE8F41"/>
<path transform="translate(484,208)" d="m0 0h12l7 3v69l-4 2h-4l-2-31-2-7-3-3-2-19h2v-3h-6l1 21v12l-4 1 1 6h-6l1 4 1 22 1 3 1-24h4v26l-13 4-7 7-9 2v-5h-5l-1 8-3 1v-27h-50v46h-2l-1-17-45-1v24l2 1h-4v-28l29-1h18v-30h34l-1-9v-48l31-5z" fill="#414E70"/>
<path transform="translate(322,124)" d="m0 0h229v5l-2 1-217 1-9 2-9 4h-3l-2 4-8 7-4 5-5 12-1 63-1 408h-8l-1-470 4-12 7-12 8-8 12-7z" fill="#F1F0E1"/>
<path transform="translate(899,794)" d="m0 0h30l10 3 4 4v3h2v24h-20v-11l-20 2v62h11l9 1-1-2v-15h-8v-19l2-1h25l2 1v59l-2 1h-28l-18-1-9-5-5-7-1-3v-82l6-9 7-4z" fill="#CE8F41"/>
<path transform="translate(280,168)" d="m0 0h1l1 18v450h-6v-89h-167v-2l7-1 160-1v-6h-112l-66-1-7-5v-3l23-1h161v-352h1l1 10h3z" fill="#414E70"/>
<path transform="translate(606,310)" d="m0 0h52l15 2 16 7 21 14 10 7-3 3-10 6-5 8-7-2-103-11-25-3-3-1-7-21v-4l20-3z" fill="#F2F1E4"/>
<path transform="translate(318,394)" d="m0 0h12l-1 2h-11l1 5h12l-1 3-4 2 1 3-6 14-4 1v2h5v-2h2l1-7 7-10 10-9 3-2 6 1 22 12 13 8 5 1v4l4 1-3 5-7 6-7 9-8 15-4 14-1 7-1 20h-14l-11-2-5-8-2-9-5-2-12-7v-4l9 3-8-16-4-14v-14l8-10 4-10-6-1-2-2v-7z" fill="#EFE2BE"/>
<path transform="translate(600,76)" d="m0 0h23l12 25 7 17v2h2v-44h19l1 15v66l-1 14h-12l-9-1-10-21-11-26v46l-1 1h-20z" fill="#CE8F41"/>
<path transform="translate(501,450)" d="m0 0 4 1 10 13 3 5 9 10 8 6 9 4 15 4 17 2 105 2 76 2h76l3 2v3l6 1-2 5h-185l-78-1-48-1-18-1-1-3-1-22-5-23z" fill="#CD8E41"/>
<path transform="translate(670,795)" d="m0 0h22l4 8 8 30 5 25-2-1-13-51 1 7 6 27 5 19 1 9 1 2 1-7-1-4h2l2-12 11-51 1-1h22l-5 24-13 53 2 1-2 12-5 17-2 3h-25l-4-11-12-49-10-41z" fill="#CD8E40"/>
<path transform="translate(73,820)" d="m0 0h208l1 46 5 15 6 10 4 5 8 7 8 5 23 12 41 21 50 25 19 10 124 62 19 10 34 17 19 10 29 15 15 7 11 3h24l16-5 10-5 2 1-2 4-14 6-12 3h-26l-21-7-34-17-19-10-80-40-19-10-138-69-19-10-30-15-19-10-11-6-8-6-2-1v-3l-4-2-10-17-4-12-1-8-1-33-204-1z" fill="#1C293A"/>
<path transform="translate(69,488)" d="m0 0h196l1 19h-191l-5-13z" fill="#0E1B2C"/>
<path transform="translate(1198,487)" d="m0 0h160l-2 6-6 11-1 1-108 1h-88v-18z" fill="#101D2E"/>
<path transform="translate(563,372)" d="m0 0h138l7 2 1 1 15 2 5 10h-15l-7-4-1-5h-123l-20-2 3 17 9 25 7 14v4l3 1 10 16 8 9 14 8 13 4 15 3 29 3 44 2 70 2 17 1v2l-6 5h-92l-49-3-30-3-14-4-11-6-8-7-10-14-11-20-7-16-4-14-1-7v-24z" fill="#CD8E41"/>
<path transform="translate(997,272)" d="m0 0h17v5h-6l-1 4h6v37l-1 5h2l1-4h48l1 1v34h-13l-2-1-1-8v-16l-6 1v-2h-12v25h-16l-5 1-4-4-16-8-10-1v10h-1v-42l9-15 8-17z" fill="#455272"/>
<path transform="translate(865,247)" d="m0 0 31 1v2h-3v2h2l1 5 2-2v34h4v-39h-3v-2h15v47l8 1v44h7v1h-12v-33h-20v20l-12-2-15-5-4-3v-64z" fill="#414E70"/>
<path transform="translate(689,75)" d="m0 0h34l2 7v15l-2 1-26 1-3 1 3 6 4 5 10 8 7 7 5 8 2 5v15l-4 5 1 2-3 5-7 4h-31l-5-2v-21h28l-1-7-15-14-8-7-4-6-2-7v-15l2-6 6-7z" fill="#CE8F41"/>
<path transform="translate(599,286)" d="m0 0h54l18 3 19 6 13 7 1 3-6-1-19-6-17-3-12-1h-44l-44 4-32 6-16 4h-4v2l-36 12-23 9-13 5-28 11-23 8-21 4h-27l-6-3-3-4v-4h20l22-3 24-6 53-18 28-10 16-6 30-8 33-6 32-4z" fill="#F2F1E4"/>
<path transform="translate(911,407)" d="m0 0h22l15 3 13 5 11 7 15 12 8 14 3 4v2l4 2 7 13v3h-10l-7-1-8-17-10-14-8-7-10-6-11-5-7-2-8-1h-15l-15 3-12 4-4 4-6 4-9 8-7 10-7 14-4 15-1 9-1 20h-9l1-4-5-2v-3l-3-1 1-2h3l1-12 3-16 6-17 5-9 8-11 8-8 14-9 11-5 11-3z" fill="#F1F0E3"/>
<path transform="translate(564,340)" d="m0 0 95 10 36 4 8 2v13h-127l-6-1-6-22z" fill="#646F84"/>
<path transform="translate(488,537)" d="m0 0h384l7 5v2h-395l2-5z" fill="#F2F1E4"/>
<path transform="translate(640,795)" d="m0 0h22v4h2l1 7v98l-5 2v-2l-8 1h-11l-1-14z" fill="#CE8F41"/>
<path transform="translate(753,795)" d="m0 0h24v110h-24z" fill="#CE8F41"/>
<path transform="translate(606,293)" d="m0 0h44l19 2 17 4 14 5h7l19 9 8 7 1 4 15 10 20 14 17 12 4 3v3l-5 1h-17l-9-8-14-10-18-13-18-11-16-10 1-3 9 2h7l-4-4-12-3-15-5-30-4h-40l-45 3-13 2-5 2-9 2h-7l-10 4-19 4-26 9-24 9-13 5-35 14-18 6-13 3h-3l1-3 16-4 34-12 25-10 12-5 28-10 22-7h2v-2l24-6 36-6z" fill="#293547"/>
<path transform="translate(277,516)" d="m0 0h1l1 6v28l-1 2h-2v-5h-167v-2l7-1 160-1v-6h-112l-66-1-7-5v-3l23-1h161l1-10z" fill="#162234"/>
<path transform="translate(312,434)" d="m0 0 20 1 35 2-8 17-3 8-1 7v20l9 1v9h-14l-11-2-5-8-2-9-5-2-12-7v-4l9 3-8-16-4-14z" fill="#CD8E40"/>
<path transform="translate(966,212)" d="m0 0h6l1 99h4l-1 41-1-2-7-2-3-13v-28l-11 1h-2-6v-82l1-6 5-1 1 1v54l1-57 5-1v58h2v-2l5 1 1 2v-16l-1-21z" fill="#4D5977"/>
<path transform="translate(561,374)" d="m0 0h1l1 24 3 14 4 12 9 19 10 17 10 12 9 6 8 4 12 3 30 3 49 3h92l4-4h2l1-6 5-11 4-12 3-19v-15l-4-20-8-14-1-3 4 1 6 9 5 14 2 11v19l-3 18-6 16-9 18h30l3-18 3-16 3-1 1-6 8-16h3l1-4 5-6 1-2 7-4 5-4h2v-2h3v-2h3v-2l7-1v-2l19-3h26l20 3 1 2 8 3 3 3 6 4 10 9 4 5-4-2-13-10-10-6-14-5-12-2h-22l-14 3-13 5-13 8-10 9-6 8-6 10-6 16-3 13-3 18-4 1v-2l-67-1-85-2-29-2-24-3-18-5-8-4-10-9-8-11-10-18-6-13-6-17-2-10v-27z" fill="#162335"/>
<path transform="translate(1040,299)" d="m0 0h62l1 26v73l-2-1v-13l-5-1v-59h-12l-3-2v-8h-2v43l-10-1-1-1-2-32v-7h-26z" fill="#646F84"/>
<path transform="translate(484,208)" d="m0 0h12l7 3v69l-4 2h-4l-3-44v-25l-25 3-22 2-2 1-16 2 1 53 9-1h12l2 1 1 8v15l-4 1-1 8-3 1v-27h-50v46h-2l-1-17-45-1v24l2 1h-4v-28l29-1h18v-30h34l-1-9v-48l31-5z" fill="#F2F1E4"/>
<path transform="translate(394,280)" d="m0 0h50l1 28-16 7-32 11h-3z" fill="#414E70"/>
<path transform="translate(436,386)" d="m0 0h27l17 3 15 5 10 6 7 8 7 16 8 23 9 16 6 8 13 8 23 7 9 3v1h-9l-20-5-4-3-20-8-7-6-10-17-8-18-7-11-9-10-6-5-14-8-11-4-10-2h-28l-16 5-5 2h-3v-2l11-6 14-4z" fill="#CE8F41"/>
<path transform="translate(1062,233)" d="m0 0h17l7 5 8 13 9 6 1 1v6l-3 2h-67l-6-3-1-4 5-8h2l1-5 7-5 9-1z" fill="#646F84"/>
<path transform="translate(725,937)" d="m0 0h16l7 3 4 5v37l-4 7-3 2h-21l-5-3-2-5v-39l3-5z" fill="#F2F1E4"/>
<path transform="translate(774,937)" d="m0 0h19l6 3 3 5v37l-4 7-3 2h-22l-4-3-2-6v-37l3-5z" fill="#F2F1E4"/>
<path transform="translate(518,454)" d="m0 0h2l8 14 8 6 20 8 2 2 24 6 1 3 43-1-13-4-3-2v-2l11 2 7 2 24 3 29 2 137 3 15 1-1 3h-75l-125-3-56-1-21-3-16-5-8-5-12-11-4-5 1-4 4 1-1-4z" fill="#F1EFE1"/>
<path transform="translate(976,378)" d="m0 0h7l20 5 21 9 22 13 11 9 6 8 1 8-10-1-26-8-17-9-12-8-11-9-5-4-3-3-4-2-1-3h2z" fill="#283447"/>
<path transform="translate(802,364)" d="m0 0h50l40 1 34 2 37 4 27 5 23 7 19 8 15 8 6 4v2l-2 1 2 5-9-6-17-10-10-5-17-7-17-4-7-1 1 5-19-4-23-3-43-3-100-1 1-4 5-3z" fill="#F2F1E4"/>
<path transform="translate(342,189)" d="m0 0h22l12 6v3h3v2l5 2 8 6 2 3v6l-1 1h-77l-1-7 4-5h6l1-4 3-5 11-1 1-6z" fill="#1E2B3C"/>
<path transform="translate(427,361)" d="m0 0h55l27 3 14 2 39 3v5h-28l-42-3-20-1h-107l-24 2h-7l5-5 5-2 19-3h19z" fill="#CD8E41"/>
<path transform="translate(279,707)" d="m0 0h11v1h-8v96l-1 1-58 1h-144v-3l15-1 86-2h96v-92z" fill="#263345"/>
<path transform="translate(784,304)" d="m0 0h54v8l-1-2h-2v4l3 1-4 1-1 17-3 3h-2v-4h-17v-10h-9l-3 6h2l-1 4-4 1v2l-5 1v-4h-9l-4-2v-25z" fill="#3C4969"/>
<path transform="translate(546,250)" d="m0 0h48l4 1 1 8v10l-17 1h-11v-3h-7l1 4h-10v-4h-4l-2 6-4 2-18 3v-27z" fill="#434F71"/>
<path transform="translate(900,409)" d="m0 0h2v3h6l3 2v2l-7 2-1 3-15 5-4 4-6 4-9 8-7 10-7 14-4 15-1 9-1 20h-9l1-4-5-2v-3l-3-1 1-2h3l1-12 3-16 6-17 5-9 8-11 8-8 14-9 11-5z" fill="#F1E4C1"/>
<path transform="translate(496,816)" d="m0 0h20l1 1v64l-1 1h-20z" fill="#0E1B2C"/>
<path transform="translate(345,396)" d="m0 0 6 1 22 12 13 8-4 2-9 11-5 6-2-1v-3l-22-3-22-2v-3h2l1-7 7-10 10-9z" fill="#CE8F41"/>
<path transform="translate(919,161)" d="m0 0h21l10 3 13 7 2 4 8 4 2 2v5l-2 1h-80l-1-1 1-7 5-3h24l9-1-2-6-4-2-11-1-2 5-1 2h-2l1-5 5-5z" fill="#283547"/>
<path transform="translate(106,416)" d="m0 0h144v7l-3 1h-140l-34-1-1-5 1-1z" fill="#F2F1E4"/>
<path transform="translate(458,320)" d="m0 0h6l2 2-3 2-7 1-1 2-7 3-2 3-36 14-23 8-21 4h-27l-6-3-3-4v-4h20l22-3 24-6 12-4 9-1 20-6 13-3v-2z" fill="#F2F1E4"/>
<path transform="translate(694,312)" d="m0 0 10 2h7l2-1 16 9 9 4 12 8 20 14 17 12 4 3v3l-5 1h-17l-9-8-14-10-18-13-18-11-16-10z" fill="#F2F1E4"/>
<path transform="translate(1084,460)" d="m0 0h5l-1 2-3 1-1 2-3 1-5 13-5 8-16 2h-8v10l-3 1-1 2 27-1 8-1h9l-1 3-3 1h-44l-11-8 1-6 11-15 10-8 8-3 18-3z" fill="#111E2F"/>
<path transform="translate(434,219)" d="m0 0h9l4 4v16l1-20 4 1-1 45-1 7 2 1-3 1h-21l-1-10v-43z" fill="#646F84"/>
<path transform="translate(484,213)" d="m0 0h8l1 35-2-4-3-3-2-19h2v-3h-6l1 21v12l-4 1 1 6h-6l1 4 1 22 1 3 1-24h4v26l-7 2h-4l-1-37v-32l-3 2-2 31-1 2h-2l-1-5-1-31-5-2v-2l12-1v-2z" fill="#717B8D"/>
<path transform="translate(866,657)" d="m0 0h5v34h-79v72l-3 3h-33l-2-5h32v-75h80z" fill="#F2F1E4"/>
<path transform="translate(667,937)" d="m0 0 9 1v22h16v-22h9l1 2v50l-1 1h-9l-1-9v-13l-15-1v23h-9z" fill="#F2F1E4"/>
<path transform="translate(515,676)" d="m0 0 6 4 5 8 3 9v25l-4 15-7 11-8 9-14 7-12 3-8 1h-51l-19-4-5-3v-2l20 3h49l17-3 11-4 9-6 6-7 4-8 3-9 1-6v-22l-5-16z" fill="#F2F1E4"/>
<path transform="translate(1093,458)" d="m0 0 1 2-11 30h-2v2h-6v2l5 1 7 3 10 1 5 3-2 6-4 1h-50l-5-2v-2l28-2h14l3-1 1-2-17 2h-27l1-3h3v-10l20-2 4-1 7-14 3-7h3l1-3 7-3z" fill="#F0E4C1"/>
<path transform="translate(575,937)" d="m0 0h20l6 4 1 2v8h-9l-2-4h-11l1 11 15 5 6 4v18l-4 5-2 1h-22l-4-5-1-8 9-1 2 2v3h12v-12l-16-3-6-3-1-4v-13l2-6z" fill="#F2F1E4"/>
<path transform="translate(1015,319)" d="m0 0h48l1 1v34h-13l-2-1-1-8v-16l-6 1v-2h-12v25h-14l3-1v-31h-5z" fill="#445172"/>
<path transform="translate(1164,415)" d="m0 0h144l23 1-1 5-52 1h-114z" fill="#F2F1E4"/>
<path transform="translate(779,246)" d="m0 0h5v55h-6v-52h-2v52h-6v-49h-2v69h-1l-2-19-2 16h-2v-66l8-3z" fill="#4C5876"/>
<path transform="translate(958,537)" d="m0 0h61l100 1v5l-4 1h-163z" fill="#F2F1E4"/>
<path transform="translate(346,308)" d="m0 0h45l1 1v17l-4 2-26 5h-14l-2-1z" fill="#424F71"/>
<path transform="translate(646,208)" d="m0 0h18l9 5 5 3 3 5v3l3 1-1 4h-2v2l-2 1h-23-4-15l-1-6-5-1 1-6 5-5 6-5z" fill="#646F84"/>
<path transform="translate(624,937)" d="m0 0h20l6 5 1 2v7h-10l-1-5-12 1v35h11l1-4h11l-1 8-5 5h-21l-6-5-1-3v-26l1-14 4-5z" fill="#F2F1E4"/>
<path transform="translate(656,580)" d="m0 0 4 1 15 42 16 44 19 53 16 43v3h-36l-1-5 30-1-19-53-18-50-19-53-7-20z" fill="#F2F1E4"/>
<path transform="translate(631,628)" d="m0 0 3 1 14 41 3 10-2 1h-21l-12-1 2-9 11-34z" fill="#152234"/>
<path transform="translate(281,186)" d="m0 0h1v450h-6v-84h2l1-46h2z" fill="#657085"/>
<path transform="translate(1048,733)" d="m0 0 4 1 1 2v26l-3 4h-127l-2-5 1-1h125v-17z" fill="#F2F1E4"/>
<path transform="translate(577,816)" d="m0 0h22l3 2v31l-1 1h-24z" fill="#0E1B2C"/>
<path transform="translate(794,372)" d="m0 0h98l43 3 23 3 15 3 3 3v1l-13-1-25-3-24-2-26-1-57-1-26-1-8-2-1 3v-4z" fill="#283547"/>
<path transform="translate(434,600)" d="m0 0h20l12 2 8 4 4 5 1 16-2-4v-5l-4-1 2-1-9-4-9-2h-26l-9 3-6 5-2 4v16l-4-2-3-3-1-4v-10l2-8 4-5 8-4z" fill="#182436"/>
<path transform="translate(332,363)" d="m0 0h2l-2 12-4 4 20 3 2 2-1 11 6 2 23 13 11 7-3 1-22-13-15-8-5 1-11 9-7 10-2 7h-2v2h-5v-2l3-1 6-15-1-3 5-1v-2l-11-1-1-5 11-1-11-1 1-2h21v-3h-19l-2-1v3l-3-1v-10l4-3h6l3-9z" fill="#162234"/>
<path transform="translate(431,957)" d="m0 0 8 2 30 15 19 10 21 10 18 10 16 7 22 12 16 8 35 17 64 32 5 5-6-1-29-15-32-16-24-13-23-11-17-8-9-4-18-10-10-4-43-22-9-4-30-15-4-3z" fill="#6E727E"/>
<path transform="translate(482,219)" d="m0 0h6v3h-2l2 9 1 12 3 1 2 7 1 13v18l2 1-1 1-9 2-5 3v-25h-4v25l-2-1-1-3-1-26h6l-1-6 4-1-1-12z" fill="#414E70"/>
<path transform="translate(818,937)" d="m0 0 9 1v44h22v9h-32v-53z" fill="#F2F1E4"/>
<path transform="translate(304,537)" d="m0 0h98l8 5v2h-105z" fill="#F2F1E4"/>
<path transform="translate(908,404)" d="m0 0h26l20 3 1 2 8 3 3 3 6 4 10 9 4 5-4-2-13-10-10-6-14-5-12-2h-22l-14 3-13 5-13 8-10 9-6 8-6 10-6 16-3 13-2 13-3-3 2-15 3-16 3-1 1-6 8-16h3l1-4 5-6 1-2 7-4 5-4h2v-2h3v-2h3v-2l7-1v-2z" fill="#1E2A3D"/>
<path transform="translate(623,611)" d="m0 0h4l4 10v4l-3 3-15 45-2 8h-9l1-10 10-32z" fill="#1A2739"/>
<path transform="translate(720,344)" d="m0 0 5 1 24 13 4 4-1 3 3 1v1h-8l-2-1h-9l3 1v2h-17l-9-6-2-3v-6l3-5z" fill="#CF964E"/>
<path transform="translate(815,312)" d="m0 0h3v19h-2l-1-5v-11h-2v17h-2v-10h-9l-3 6h2l-1 4-4 1v2l-5 1v-4h-9l-2-1v-13h4l-1-5z" fill="#646F84"/>
<path transform="translate(1030,256)" d="m0 0h33v2l11-2h25l4 4-2 4-18 1h-37l-16-2-1-4z" fill="#121F30"/>
<path transform="translate(279,707)" d="m0 0h11v1h-8v96l-1-3-5-1v-92z" fill="#646F84"/>
<path transform="translate(318,394)" d="m0 0h12l-1 2h-11l1 5h12l-1 3-4 2 1 3-6 14-4 1v2l27 2 19 3 3 1-1 5h-20l-26-2-7-1v-8l8-10 4-10-6-1-2-2v-7z" fill="#F1F0E1"/>
<path transform="translate(575,384)" d="m0 0h14l12 1 12 5 1 5-5 5-6 2h-19l-9-5v-8l3-1 1-2h-6z" fill="#1B283A"/>
<path transform="translate(871,250)" d="m0 0h7l1 4 1 33h3v-24l1-12 6-1 1 2-1 31-1 4h-3v3h-11l-1-1-1-7-2-1z" fill="#657085"/>
<path transform="translate(989,385)" d="m0 0 12 3 29 14 17 10 1 3-6-1-16-7-15-7 5 4 16 8 22 8v3l-11-2-15-6-19-10-12-9-7-8z" fill="#F2F1E4"/>
<path transform="translate(777,946)" d="m0 0h14l1 1v35h-15z" fill="#142132"/>
<path transform="translate(877,419)" d="m0 0 1 3-3 3h-3l-2 4-7 5-2 5-6 7-5 10-5 12-1 1-1 13 4 2h3l-1 26h-9l1-4-5-2v-3l-3-1 1-2h3l1-12 3-16 6-17 5-9 8-11 8-8z" fill="#F1F0E3"/>
<path transform="translate(546,250)" d="m0 0h48l4 1v17l-5-1v-11h-63v21l-3 1v-27z" fill="#F2F1E4"/>
<path transform="translate(1146,542)" d="m0 0h57l95 1v3h-151z" fill="#F2F1E4"/>
<path transform="translate(610,297)" d="m0 0h40l30 4 21 7 7 2 3 3-29-5-10-3-19-2h-49l-14-2v-2z" fill="#F1EFDF"/>
<path transform="translate(728,946)" d="m0 0h13l1 1v35h-14z" fill="#142132"/>
<path transform="translate(755,253)" d="m0 0h4v2h-3l1 2 2-1 1 13v49l-2-3-3 1v-3h-2l-2-26v-32z" fill="#646F84"/>
<path transform="translate(988,436)" d="m0 0 4 2v2h49l22 1 21 3 3 3v1h-12l-35-2-30-1-13-1v4h2l1 6h-2l-10-16z" fill="#283445"/>
<path transform="translate(896,179)" d="m0 0h75l2 3-1 3h-78l1-5z" fill="#0F1C2D"/>
<path transform="translate(949,219)" d="m0 0 4 1-1 33-1 43-3 1v9h2l1-2v4h-5v-82l1-6z" fill="#445172"/>
<path transform="translate(116,544)" d="m0 0h153v1l-19 2h-141v-2z" fill="#424F70"/>
<path transform="translate(987,431)" d="m0 0h20l25 2 13 4 4 4-57-1-6-6z" fill="#CD8E41"/>
<path transform="translate(997,444)" d="m0 0 43 1 35 2h15l1 6h-22l-23-2-7-1-42-2z" fill="#F1F0E1"/>
<path transform="translate(858,246)" d="m0 0h6v72l-5-2-1-1z" fill="#646F84"/>
<path transform="translate(795,250)" d="m0 0 6 1 1 9 1 33 4 1 1 7h-14v-32z" fill="#465272"/>
<path transform="translate(1082,236)" d="m0 0 4 2 8 13 9 6 1 1v6l-3 2h-67l-6-3-1-4 5-8 4-1v5l-6 1v6l16 2h37l18-1 1-3-3-3h-6l-1-3-18-1-1-3-3-1v-4l6-1v-2h6l2 1z" fill="#424F70"/>
<path transform="translate(513,598)" d="m0 0 5 2 7 10 3 12v15l-2 4-4 2h-24v-5l22-1-1-24z" fill="#F2F1E4"/>
<path transform="translate(458,320)" d="m0 0h6l2 2-3 2-7 1-1 2-7 3-2 3-28 11-10 1-5-3 1-3 16-6 17-5 13-3v-2z" fill="#F1E4C0"/>
<path transform="translate(342,189)" d="m0 0h22l12 6v3l-12-6-22-1v6l4-1h9l5 6 2 2 9 1v2l-45-1 3-9 11-1 1-6z" fill="#636E83"/>
<path transform="translate(788,244)" d="m0 0 3 1 1 2v54h-6l-1-7v-49z" fill="#263244"/>
<path transform="translate(1081,497)" d="m0 0 16 2 5 3-2 6-4 1h-50l-5-2v-2l28-2h14l3-1 1-2h-7z" fill="#F1EFE2"/>
<path transform="translate(510,308)" d="m0 0 2 1-2 1zm-2 2 2 1-1 2-33 11-24 9-13 5-35 14-18 6-13 3h-3l1-3 16-4 34-12 25-10 12-5 28-10z" fill="#2B374A"/>
<path transform="translate(279,529)" d="m0 0h2v84l-4 1-1-10v-52h2v-12z" fill="#414E70"/>
<path transform="translate(964,213)" d="m0 0h2l2 46v41l-2-4v-23l-5-1v-16l1-40-2-1z" fill="#657085"/>
<path transform="translate(1078,314)" d="m0 0h1v43l-10-1-1-1-2-32v-7h-15v-1h16l2 7 1 7 2 2v3h2l1-5 2-1z" fill="#414E70"/>
<path transform="translate(1164,319)" d="m0 0h99v3l-62 1h-38z" fill="#F2F1E4"/>
<path transform="translate(765,250)" d="m0 0 3 1-1 57h-1l-1-6-2 16h-2v-66z" fill="#414E70"/>
<path transform="translate(474,353)" d="m0 0 10 2 23 5 29 4 26 2v3h-11l-37-3-23-3-9-1-3-3 1-1-6-4z" fill="#F1F0E2"/>
<path transform="translate(962,173)" d="m0 0 11 6 2 2v5l-2 1h-80l-1-1 1-7 5-3h34v2l-8 1-28 1-2 5h78l-1-5-19-1v-2l7-1h3z" fill="#F2F1E4"/>
<path transform="translate(538,318)" d="m0 0h7v5l-28 6-21 6-21 7h-2l1-3 13-6 27-9z" fill="#F2F1E4"/>
<path transform="translate(779,246)" d="m0 0h5v55h-6v-54z" fill="#283546"/>
<path transform="translate(837,304)" d="m0 0h1v8l-1-2h-2v4l3 1-4 1-1 17-3 3h-1v-21h-6v-5l-3 1h-9l-15-2v-3h41z" fill="#657085"/>
<path transform="translate(411,280)" d="m0 0h5v2h2v2l4 2-6 1h-2v-2l-4-2-3 2-2 5 5 1 1-3h14l2 1v6h-21l-1-3-3 3-4-1-2 3v-16z" fill="#657085"/>
<path transform="translate(903,250)" d="m0 0h8v41l-3 1-3-1-1-5z" fill="#717B8D"/>
<path transform="translate(950,310)" d="m0 0h13v26h-2v-16h-25v-7l1-2z" fill="#626D83"/>
<path transform="translate(783,313)" d="m0 0h12l1 5-2 18h-3v-4h-9l-2-1v-13h4z" fill="#657085"/>
<path transform="translate(1154,618)" d="m0 0h136l-1 4h-48v-1l-15-1-72-1z" fill="#5F6A81"/>
<path transform="translate(805,387)" d="m0 0 4 1 6 9 5 14 2 11v19l-3 18-5 14-3-1 3-11 3-15 1-7v-15l-4-20-8-14z" fill="#162334"/>
<path transform="translate(875,247)" d="m0 0h40v48h-1v-47h-15v2h3v39h-4l-1-32-2 1v-6h-2v-2h3v-2h-21z" fill="#657085"/>
<path transform="translate(720,344)" d="m0 0 5 1 21 12v2l-28-2-7-1 2-6z" fill="#F1F0E2"/>
<path transform="translate(596,1039)" d="m0 0 6 2 25 12 19 10 34 17 5 5-6-1-29-15-32-16-22-12z" fill="#70737D"/>
<path transform="translate(925,166)" d="m0 0h8l14 3 9 4 2 3-6 1v2h-28v-1h8l-3-9z" fill="#677286"/>
<path transform="translate(457,503)" d="m0 0h3v4l5 1-3 5-8 5-7 3h-20l-8-4v-2h7l1-10h3l1 14 14-1-3-6v-5l7 1 1-2 1 3-4 1 2 5 7-1 3-5h-6l-1-3h5z" fill="#CE8F41"/>
<path transform="translate(1062,233)" d="m0 0h17l3 3-6-1h-10l-7 2-4 3h-2l-1 5 9-1v3l-1 4-5-1v3h-9v-2l-3 2-5-1v-3h-2l1-4 5-4 9-1z" fill="#616C82"/>
<path transform="translate(434,339)" d="m0 0h5v2l-11 5h-5v2l-8 1-1 3-10 4-5 1-1 4-16 2h-19l4-2 19-4 21-7z" fill="#F1EFE0"/>
<path transform="translate(812,836)" d="m0 0 2 1 2 12v56l-4 1z" fill="#657085"/>
<path transform="translate(536,810)" d="m0 0 2 1 1 4v26l-1 45-4 9-3 3-14 5h-17v-1l17-2 10-4 5-4 3-7z" fill="#152233"/>
<path transform="translate(205,301)" d="m0 0h43v4h-72v-3z" fill="#F2F1E4"/>
<path transform="translate(820,310)" d="m0 0h3v5h6v21l-1-4h-15v-17h2l1 16h2v-20z" fill="#445171"/>
<path transform="translate(1096,454)" d="m0 0h3l-4 16-6 20-2 5 4 1v3l-8-1-8-4v-2h6v-2h2l2-9 8-21z" fill="#2E3B4D"/>
<path transform="translate(1066,234)" d="m0 0h10l7 3 2 4-1 3-2-1-17 1-13 1 1-5 8-5z" fill="#142132"/>
<path transform="translate(460,222)" d="m0 0h1l1 36-8 1v-34l2-1 1 2z" fill="#657085"/>
<path transform="translate(578,299)" d="m0 0h12v2l14 1v1l-24 2-22 3v-2h-15l4-2 5-2 13-2z" fill="#EEE1BE"/>
<path transform="translate(376,198)" d="m0 0h3v2l5 2 8 6 2 3v6l-1 1h-77l-1-7 4-5h6v2l-7 3-1 5h75l-3-7-9-7z" fill="#F0EFE3"/>
<path transform="translate(565,377)" d="m0 0h18l3 1 29 1v1l-13 1 10 7-1 2-10-4-26-2 2-2-2-2-10-1z" fill="#F1F0E3"/>
<path transform="translate(684,221)" d="m0 0h6l12 11 1 6-1 1h-78l2-2 74-1-7-8-9-5z" fill="#F2F1E4"/>
<path transform="translate(755,253)" d="m0 0h4v2h-4l2 13-1 8-1 34h-2l-2-23v-32z" fill="#414E70"/>
<path transform="translate(352,315)" d="m0 0 5 4 1 11 8-1v-8h4v8l11-3h10l-3 2-26 5h-11l-1-1v-16z" fill="#626D83"/>
<path transform="translate(920,296)" d="m0 0h2v44h7v1h-12v-33h-6l1-2 7 1z" fill="#646F84"/>
<path transform="translate(950,465)" d="m0 0h3l4 9 1 4v16l-5 12h-2v-9l3-1 1-11-9 1v-2h2v-2l6-1-1-9h-2l-1 5h-3l1-8z" fill="#CD9A5A"/>
<path transform="translate(914,166)" d="m0 0h11l5 3 2 6-1 1-9 1h-12l-2-2 1-4v2h2l2-5z" fill="#152234"/>
<path transform="translate(1097,446)" d="m0 0 3 1 1 2v12l-7 28-1 8-6-2 3-11 8-28 1-2h-2l1-5z" fill="#F2F1E4"/>
<path transform="translate(592,256)" d="m0 0h1v11l5 1v-9h1v10l-17 1h-11l1-5 6 1v2l5-2 2-3h-9l-1-4 2-1h14z" fill="#5C6880"/>
<path transform="translate(1164,364)" d="m0 0h61v3h-61z" fill="#F2F1E4"/>
<path transform="translate(1100,300)" d="m0 0h1v25h2v52l-3 1z" fill="#4B5776"/>
<path transform="translate(1035,250)" d="m0 0h1v5l-6 1v6l16 2h37l18-1 1-3-3-3-6-4 1-2 9 6 1 1v6l-3 2h-67l-6-3-1-4 5-8z" fill="#F2F1E4"/>
<path transform="translate(1062,261)" d="m0 0h26l11 2v1l-16 1h-37l-8-1 1-2z" fill="#606B82"/>
<path transform="translate(705,304)" d="m0 0 9 3 13 7 7 6v4l-9-3-17-10v-4l-3-1z" fill="#2F3C4F"/>
<path transform="translate(877,419)" d="m0 0 1 3-3 3h-3l-2 4-7 5-2 5-6 7-5 10-5 12-3 1 3-11 7-14 8-11 8-8z" fill="#F2F1E4"/>
<path transform="translate(401,476)" d="m0 0h3l1 2 8 2v4h-2v-2l-6 1-1 3h2v2h-3l2 5 5-1 6 2 2 4-9-1-3 6-4-5-2-9v-9z" fill="#CE8F41"/>
<path transform="translate(871,250)" d="m0 0h7v7l-1 3-1 22-5-1z" fill="#657085"/>
<path transform="translate(999,305)" d="m0 0h3v34l-5-1-2-1 1-2 3 1-1-18-5-1-1-1v-5l6-4z" fill="#657085"/>
<path transform="translate(693,804)" d="m0 0 2 2 13 51 2-1-1 4 1 4-1 7-3-3-1-9-5-19-7-30z" fill="#162334"/>
<path transform="translate(320,385)" d="m0 0h23l-1 9-2 2h-11v-1l-11-1 1-2h21v-3h-19z" fill="#CA8D43"/>
<path transform="translate(864,249)" d="m0 0h2l1 5v27l-1 37h-2z" fill="#F2F1E4"/>
<path transform="translate(892,505)" d="m0 0 5 1 2 3h5v6l7 1-1-7 2-3h2v13l6 1v2h-10l-4-1v-2l-4-1v-2h-2v-3l-5-1-3-3z" fill="#B9894E"/>
<path transform="translate(422,448)" d="m0 0 4 1-1 4-3 1 2 7h-3l-1-4h-5l-1 4h-3v5h-3l-2 10-3-1v-8l6-9 4-2 1-3z" fill="#CE8F41"/>
<path transform="translate(646,208)" d="m0 0h18l9 5 5 3 3 5v3l3 1v3l-6-1-2-9h-3v2h-3v-5l-6-3-5-1h-9l-11 4-2-1 6-5z" fill="#F2F1E4"/>
<path transform="translate(1035,246)" d="m0 0 1 3h2l1 3 7-1v2h9v-3l5 1 1-4-2-1h7l-1 8 1 4h-3v-2h-30l3-1-2-6z" fill="#424F70"/>
<path transform="translate(784,304)" d="m0 0h53v2h-41l-2 4-14-1v-4z" fill="#414E70"/>
<path transform="translate(342,189)" d="m0 0h22l12 6v3l-12-6-22-1v6l-9 2h-3l-2 6h43v2l-45-1 3-9 11-1 1-6z" fill="#F2F1E4"/>
<path transform="translate(537,475)" d="m0 0 9 3 10 4 2 2v4l-13-1-4-2-2-5h-6v-3z" fill="#F1E5C3"/>
<path transform="translate(785,245)" d="m0 0h3v37l1 18-3 1-1-7z" fill="#5E6981"/>
<path transform="translate(850,441)" d="m0 0 3 3-7 14-5 16-3 19-3-3 2-15 3-16 3-1 1-6z" fill="#2A364A"/>
<path transform="translate(568,259)" d="m0 0h2l-1 5-1 3h-4l1 4h-10v-7h-5v-4h11l7 1z" fill="#616C83"/>
<path transform="translate(687,798)" d="m0 0 3 1 5 14 6 27 5 19 1 4h-2l-6-18-8-33-1-9h-2z" fill="#606C82"/>
<path transform="translate(888,250)" d="m0 0h2l1 2-1 31-1 3h-3v-31z" fill="#F2F1E4"/>
<path transform="translate(509,364)" d="m0 0h27l26 2v3h-11l-37-3-5-1z" fill="#F1E6C6"/>
<path transform="translate(552,318)" d="m0 0 2 1 13 48-3 1-3-9-9-33z" fill="#F2F1E4"/>
<path transform="translate(964,215)" d="m0 0h2v45l-2 7h-1v-49z" fill="#F2F1E4"/>
<path transform="translate(1023,325)" d="m0 0h12l11 1 3 1v2l-7 1v-2h-12v25h-3v-26h-4z" fill="#F2F1E4"/>
<path transform="translate(1050,326)" d="m0 0h2l2 5v22h-5l-1-8v-15h2z" fill="#F2F1E4"/>
<path transform="translate(470,473)" d="m0 0h3l1 3v16l-5 12-2-1v-7l-7 2-1-5 1-1h8l1 5h2l-1-18-1-5z" fill="#CE8F41"/>
<path transform="translate(321,902)" d="m0 0 11 4 35 18v2l-5-1-23-11-18-9z" fill="#787578"/>
<path transform="translate(579,870)" d="m0 0h2l-1 34h-4v-33z" fill="#687083"/>
<path transform="translate(919,161)" d="m0 0h21l10 3 11 6-3 1-8-4-12-3-16-1 1 3h-9l-2 5-1 2h-2l1-5 5-5z" fill="#F2F1E4"/>
<path transform="translate(561,374)" d="m0 0h1l1 24 3 14 6 18h-2l-1 2-7-20-2-10v-27z" fill="#1D2A3C"/>
<path transform="translate(461,221)" d="m0 0h3l1 5v30l-1 2h-2l-1-5z" fill="#F2F1E4"/>
<path transform="translate(1050,504)" d="m0 0h9l1 1 20 2 4 2h-38l-5-2v-2z" fill="#F1E4C1"/>
<path transform="translate(805,387)" d="m0 0 4 1 6 9 5 14 2 11v19h-1v-18l-3 1-4-20-8-14z" fill="#3B475A"/>
<path transform="translate(416,344)" d="m0 0h2l-1 3-24 9-20 5h-3l1-3 16-4z" fill="#243144"/>
<path transform="translate(770,305)" d="m0 0h6v26l-2-3v-2l-4-1z" fill="#485474"/>
<path transform="translate(995,287)" d="m0 0h7l1 15-3 1v-2h-2v4h-4v-16z" fill="#657085"/>
<path transform="translate(910,448)" d="m0 0h6l-1 6h2v2h-2v6l-3 1-2-9-5-1v6l-5 1v-3h-3l1-3z" fill="#CD8E41"/>
<path transform="translate(215,363)" d="m0 0h31v4h-32z" fill="#F2F1E4"/>
<path transform="translate(815,312)" d="m0 0h3v19h-2l-1-5v-11l-4 2h-8v2h-3v-2l-3-1v-3z" fill="#F2F1E4"/>
<path transform="translate(591,347)" d="m0 0h14l23 2 3 1v2h-18l-18-2-4-2z" fill="#F2F1E4"/>
<path transform="translate(594,389)" d="m0 0 13 2 3 1v2l-3 1h-17l-12-1v-4l16 1z" fill="#F2F1E4"/>
<path transform="translate(534,260)" d="m0 0h9v4h4l1 10-9 1v-6l2-1 2 1v-4l-9 1-1-2z" fill="#657085"/>
<path transform="translate(899,250)" d="m0 0h3v39h-3z" fill="#F2F1E4"/>
<path transform="translate(277,516)" d="m0 0h1l1 6v28l-1 2h-2v-5h-26v-1l26-3 1-7v-12l-1-7z" fill="#121F30"/>
<path transform="translate(1030,328)" d="m0 0h12v2h2l-1 4-3 3h-10z" fill="#4F5965"/>
<path transform="translate(687,283)" d="m0 0h17l29 1v2h-46z" fill="#F2F1E4"/>
<path transform="translate(347,274)" d="m0 0 6 2 6 4 2 4-6 1-4-1v-2h3l-1-3-5-1-3 3 3 1v2h-12l1-3h4l1-4z" fill="#F2F1E4"/>
<path transform="translate(974,311)" d="m0 0h3l-1 41-2-2v-26h-2l-1-12z" fill="#374356"/>
<path transform="translate(1057,327)" d="m0 0 2 1-1 11 1 4-2 6-1 2h3l-1 3h-7l3-1v-22z" fill="#636F84"/>
<path transform="translate(382,933)" d="m0 0 5 1 27 13 7 4-1 2-9-3-23-12-6-3z" fill="#7B7676"/>
<path transform="translate(384,164)" d="m0 0 8 1 5 3v3h-21l2-3h3v-2z" fill="#636E83"/>
<path transform="translate(949,323)" d="m0 0h11v13h-3v-12h-2v12h-2l-2 2-1-7v-6z" fill="#525E7A"/>
<path transform="translate(1034,321)" d="m0 0h18l1 7-1-2h-2v4l-2-1 1-2-14-1z" fill="#636E84"/>
<path transform="translate(493,251)" d="m0 0h1l1 13v18l2 1-1 1h-5v-13z" fill="#646F84"/>
<path transform="translate(1271,619)" d="m0 0h18v3h-48v-1z" fill="#414E70"/>
<path transform="translate(858,293)" d="m0 0h3l1 3 1 20-5-1z" fill="#414E70"/>
<path transform="translate(1016,321)" d="m0 0h3v31h-3z" fill="#F2F1E4"/>
<path transform="translate(798,289)" d="m0 0h4l1 4 4 1 1 7h-12l2-6z" fill="#495675"/>
<path transform="translate(696,810)" d="m0 0h2l7 27 4 21-2-1-11-44z" fill="#CE8F41"/>
<path transform="translate(442,446)" d="m0 0 5 1 7 3v2h-2v3h-2v5l-3 1v-11h-2v7h-2l-1-2z" fill="#CE8F41"/>
<path transform="translate(447,503)" d="m0 0h4l2 5 6 1-1 4-4 3h-5l-2-6 4-1-1-2-2 1v-2l-2-1z" fill="#1C293A"/>
<path transform="translate(533,260)" d="m0 0 1 4 2 1h7v4h-3l-1 7h-6l-1-15z" fill="#657085"/>
<path transform="translate(951,253)" d="m0 0h1l1 44-1 11-4-2v-9l2-1z" fill="#657085"/>
<path transform="translate(510,308)" d="m0 0 2 1-2 1zm-2 2 2 1-1 2-34 11-1-3z" fill="#2F3B4D"/>
<path transform="translate(279,707)" d="m0 0 2 1-2 14-1 50h-1v-62z" fill="#414E70"/>
<path transform="translate(705,304)" d="m0 0 9 3 13 7 6 5-4 1-16-10-8-4z" fill="#F2F1E4"/>
<path transform="translate(937,323)" d="m0 0h11l-1 11-5 2v-8h-2v-2h-3z" fill="#455170"/>
<path transform="translate(874,250)" d="m0 0h4v7l-1 3-1 22h-2z" fill="#F2F1E4"/>
<path transform="translate(479,220)" d="m0 0h3v27h-3z" fill="#F2F1E4"/>
<path transform="translate(721,81)" d="m0 0h2v14h-28v-2h26z" fill="#101D2E"/>
<path transform="translate(825,309)" d="m0 0 3 1v4h2l2 5v16l-3 1v-21h-5v-5z" fill="#F2F1E4"/>
<path transform="translate(570,258)" d="m0 0 2 2 4-2v5h9l-2 4-5 1v-2l-10 1z" fill="#475473"/>
<path transform="translate(1017,222)" d="m0 0 10 2 6 4-1 4-5-4-6-3h-4v3h8v3l-10-1-1-5z" fill="#F2F1E4"/>
<path transform="translate(1e3 305)" d="m0 0h2v34l-5-1-2-1 1-2 4 1z" fill="#F2F1E4"/>
<path transform="translate(1062,233)" d="m0 0h17l3 3-6-1h-10l-7 2-8 6-9 1-6 5 1-4 5-4 9-1z" fill="#F2F1E4"/>
<path transform="translate(839,219)" d="m0 0h6v2l-2 2 8 1v-2h4v3h-23l1-5 6 1z" fill="#F2F1E4"/>
<path transform="translate(415,500)" d="m0 0h3v6h2l-1 6-1 2-5-1-6-7v-3l4 2 2 3 4 1-2-5z" fill="#CC8E41"/>
<path transform="translate(832,307)" d="m0 0 3 1v6l3 1-4 1-1 17h-1l-1-14-1-5h-2l1-4z" fill="#475473"/>
<path transform="translate(479,264)" d="m0 0h3v25h-3z" fill="#F2F1E4"/>
<path transform="translate(785,245)" d="m0 0h3v28l-2-4-1-3z" fill="#414E70"/>
<path transform="translate(465,460)" d="m0 0 3 1 4 8v2h-3l-3-3v-2l-4 1v3h-4l-1-6h8z" fill="#CE8F41"/>
<path transform="translate(990,447)" d="m0 0 3 1 1 6v7l1 4-4-1-3-9 1-7z" fill="#F1E4C0"/>
<path transform="translate(568,259)" d="m0 0h2v4l-3 1h-17v-4h11l7 1z" fill="#F2F1E4"/>
<path transform="translate(815,844)" d="m0 0h3l-1 61h-1z" fill="#1C293A"/>
<path transform="translate(471,322)" d="m0 0h4l-1 3-22 8-4-1 10-5z" fill="#263345"/>
<path transform="translate(474,263)" d="m0 0h1l1 22 1 3 1-24h1v25l3 1-9 2z" fill="#616D83"/>
<path transform="translate(935,504)" d="m0 0h3l2 6 4 2-2 5-4 2h-6v-3h7v-4l-4-1z" fill="#CB8E42"/>
<path transform="translate(747,1090)" d="m0 0 2 1-2 4-14 6h-3v-2l-2-1 11-4z" fill="#283447"/>
<path transform="translate(533,891)" d="m0 0 1 4-3 3-14 5h-17v-1l17-2 10-4z" fill="#132031"/>
<path transform="translate(693,804)" d="m0 0 2 2 6 23-1 6-2-4-5-21z" fill="#182536"/>
<path transform="translate(792,313)" d="m0 0 4 1-1 13-1 9h-2z" fill="#F2F1E4"/>
<path transform="translate(531,201)" d="m0 0h8l3 3v2l-8-1-4 2 5 1v1l-10 1 1-4z" fill="#F2F1E4"/>
<path transform="translate(962,415)" d="m0 0 6 1 10 8 8 8h-3l-12-10-9-5z" fill="#334052"/>
<path transform="translate(367,321)" d="m0 0h3v8l11-3h10l-3 2-12 2h-9z" fill="#F2F1E4"/>
<path transform="translate(471,220)" d="m0 0h2l1 7v10l-1 10h-2z" fill="#F2F1E4"/>
<path transform="translate(533,895)" d="m0 0 2 2-7 6-6 2h-8l3-3 14-5z" fill="#E9D8B2"/>
<path transform="translate(819,451)" d="m0 0 1 3-5 17-2 2-2-1 3-11 2-9 2 1z" fill="#333F52"/>
<path transform="translate(925,448)" d="m0 0h7l3 4h-4l-1 6-5-1z" fill="#C58C46"/>
<path transform="translate(356,461)" d="m0 0h1v25 3h-2l-1-2v-18l1-7z" fill="#F1EFE0"/>
<path transform="translate(561,374)" d="m0 0h1l1 29-3-1v-27z" fill="#192637"/>
<path transform="translate(870,319)" d="m0 0 11 2 14 5v1h-7l-18-6z" fill="#5D6880"/>
<path transform="translate(784,304)" d="m0 0h6v1l5 1-1 4-14-1v-4z" fill="#657085"/>
<path transform="translate(315,467)" d="m0 0 6 2 8 6 1 4-11-6-4-2z" fill="#F1EEDE"/>
<path transform="translate(320,377)" d="m0 0h6v3l-6 2-1 9-3-1v-10z" fill="#F2F1E4"/>
<path transform="translate(839,469)" d="m0 0 2 2-3 22-3-3 2-15z" fill="#354255"/>
<path transform="translate(962,310)" d="m0 0h1v26h-2v-16h-2l-1-5 3 1z" fill="#3F4B5F"/>
<path transform="translate(987,339)" d="m0 0 11 4 4 2 5-1v6l-9-3-11-6z" fill="#F2F1E4"/>
<path transform="translate(937,311)" d="m0 0h6v2l-2 1 5 6h-10v-7z" fill="#445071"/>
<path transform="translate(576,258)" d="m0 0 14 1-1 4-4 1-9-1-1-4z" fill="#F2F1E4"/>
<path transform="translate(445,217)" d="m0 0h5l-1 2-1 20-2 1v-17l-3-2v-3z" fill="#435071"/>
<path transform="translate(797,374)" d="m0 0 8 1v5l5 6-5-1-8-8z" fill="#F2F1E4"/>
<path transform="translate(335,352)" d="m0 0h10l8 2v1l-13 2-5-3z" fill="#F1E4C0"/>
<path transform="translate(982,311)" d="m0 0 9 2-1 6-3 4-2-5v-3h-2z" fill="#233042"/>
<path transform="translate(795,268)" d="m0 0 3 2-1 6 3 1-5 2v16h-1v-26z" fill="#657085"/>
<path transform="translate(570,385)" d="m0 0 9 1-1 3h-3v8l-3-1z" fill="#F2F1E4"/>
<path transform="translate(1078,500)" d="m0 0h9l-1 3-3 1h-12l-1-3z" fill="#2E3B4E"/>
<path transform="translate(432,223)" d="m0 0h3v17l-3 1z" fill="#F2F1E4"/>
<path transform="translate(896,457)" d="m0 0 1 2v6l2 4-2 2-3-3v-2h-4l2-5z" fill="#CD9248"/>
<path transform="translate(936,452)" d="m0 0 6 1 1 3h-3v2h-2l1 8-4-1z" fill="#BF8A4A"/>
<path transform="translate(1009,399)" d="m0 0 9 3 10 5-2 3-12-6z" fill="#404C62"/>
<path transform="translate(192,364)" d="m0 0h17v3h-17z" fill="#F2F1E4"/>
<path transform="translate(352,315)" d="m0 0 5 5-2 1-1 11-3-1v-15z" fill="#F2F1E4"/>
<path transform="translate(999,287)" d="m0 0h3l1 15-3 1-1-2z" fill="#F2F1E4"/>
<path transform="translate(432,445)" d="m0 0 4 1v2h-3l1 11h-3l-1-10-3-1 2-2z" fill="#CE8F41"/>
<path transform="translate(893,411)" d="m0 0h4l-1 3-16 6v-3z" fill="#F2F1E4"/>
<path transform="translate(365,314)" d="m0 0h22v4h-3v-2h-19z" fill="#F2F1E4"/>
<path transform="translate(694,310)" d="m0 0 10 1 7 2 1 2h-8l-9-2z" fill="#374356"/>
<path transform="translate(998,272)" d="m0 0h16v5h-6l-2-4-8 1z" fill="#1D293B"/>
<path transform="translate(617,232)" d="m0 0h8l1 4h-11l-1 3h-2l1-4z" fill="#F2F1E4"/>
<path transform="translate(886,491)" d="m0 0 3 1 1 5h2v7l-4-1-2-4z" fill="#C98D43"/>
<path transform="translate(317,477)" d="m0 0 4 2 8 11 1 3-4-2-4-4z" fill="#F2F1E4"/>
<path transform="translate(990,330)" d="m0 0h2l2 6 6 3-1 3-6-2-4-4v-5z" fill="#1C293A"/>
<path transform="translate(1027,408)" d="m0 0 5 1 12 5-1 3-13-5-3-2z" fill="#323F53"/>
<path transform="translate(411,280)" d="m0 0h5v2h2v2l4 2-6 1h-2v-2l-4-2-1-2z" fill="#657085"/>
<path transform="translate(558,301)" d="m0 0 1 2h2l-1 3h-17l4-2 5-2z" fill="#F2F1E4"/>
<path transform="translate(348,277)" d="m0 0 5 1 1 4h-3v2l4 1-7-1v-2l-4-1z" fill="#3E4B5E"/>
<path transform="translate(581,388)" d="m0 0h12l1 3 2 1-17-1 2-1z" fill="#646F84"/>
<path transform="translate(812,471)" d="m0 0 1 4-7 14h-1v-6l6-11z" fill="#1E2B3C"/>
<path transform="translate(725,365)" d="m0 0 11 1 3 1v2h-17l3-1z" fill="#677083"/>
<path transform="translate(277,516)" d="m0 0h1l1 6v18l-1 5-2-2 1-7v-12l-1-7z" fill="#202D3E"/>
<path transform="translate(981,313)" d="m0 0h2v2h2l2 7h3v4l-5-1-4-10z" fill="#F2F1E4"/>
<path transform="translate(578,256)" d="m0 0h14l-1 3h-14l-1-2z" fill="#4A5775"/>
<path transform="translate(938,325)" d="m0 0 3 1-1 2h2v8l-4-1-1-2v-7z" fill="#233042"/>
<path transform="translate(578,299)" d="m0 0 2 2-4 2h-12l1-3z" fill="#F2F1E4"/>
<path transform="translate(798,289)" d="m0 0 3 1 1 11h-6l2-6z" fill="#657085"/>
<path transform="translate(536,265)" d="m0 0h7v4h-3l-1 7-2-2-2-7z" fill="#435071"/>
<path transform="translate(896,492)" d="m0 0 5 4v2h-3v4h-3l-2-7h3z" fill="#A6835A"/>
<path transform="translate(652,211)" d="m0 0h12l7 4v3l-4-1-4-3-11-2z" fill="#475373"/>
<path transform="translate(892,505)" d="m0 0 5 1 2 3 3 2h-3v2l-5-2-2-2z" fill="#C38B47"/>
<path transform="translate(953,416)" d="m0 0 7 1 3 2-1 3-7-1-2-2z" fill="#F1E4C0"/>
<path transform="translate(534,260)" d="m0 0h8v4l-8 2-1-2z" fill="#F2F1E4"/>
<path transform="translate(805,387)" d="m0 0 4 1 5 7v5h-2l-6-10z" fill="#2A3749"/>
<path transform="translate(813,315)" d="m0 0h2l1 17h-3z" fill="#505C78"/>
<path transform="translate(1082,236)" d="m0 0 4 2 7 11-1 2-7-6z" fill="#D7D8D1"/>
<path transform="translate(709,856)" d="m0 0 1 3v4l-1 8-3-3v-11z" fill="#152233"/>
<path transform="translate(902,509)" d="m0 0h2v6l4 2v2h-5l-1-3h-2l-1-5h3z" fill="#E4D8C1"/>
<path transform="translate(332,363)" d="m0 0h2l-1 6-5 8h-2l3-9z" fill="#F2F1E4"/>
<path transform="translate(957,323)" d="m0 0h3v13h-3z" fill="#4D5977"/>
<path transform="translate(850,441)" d="m0 0 3 3-6 11-3-1 2-5z" fill="#323F53"/>
<path transform="translate(371,407)" d="m0 0 5 2 13 8-3 1-15-9z" fill="#172435"/>
<path transform="translate(713,361)" d="m0 0 12 4v3l-7-1-5-4z" fill="#F0E4C5"/>
<path transform="translate(1e3 339)" d="m0 0h2v2l3 1v4l-5-1-6-3v-1h5z" fill="#354255"/>
<path transform="translate(384,164)" d="m0 0 8 1 2 3h-12z" fill="#F2F1E4"/>
<path transform="translate(561,403)" d="m0 0h2l3 9-1 5-2-2-2-8z" fill="#263345"/>
<path transform="translate(421,288)" d="m0 0 6 1v6h-5z" fill="#F2F1E4"/>
<path transform="translate(885,477)" d="m0 0 3 1 1 10-2 1-2-1z" fill="#C18B49"/>
<path transform="translate(635,215)" d="m0 0h2l-2 10h-4l1-6z" fill="#F2F1E4"/>
<path transform="translate(927,506)" d="m0 0h3v11h-3z" fill="#CE8F41"/>
<path transform="translate(544,264)" d="m0 0h3l1 10h-4z" fill="#F2F1E4"/>
<path transform="translate(661,229)" d="m0 0h11v2l2 1h-12z" fill="#414E70"/>
<path transform="translate(404,478)" d="m0 0 9 2v4h-2v-2l-7 1-1-4z" fill="#F2F1E4"/>
<path transform="translate(462,478)" d="m0 0 8 1v3l-8 1z" fill="#C08B49"/>
<path transform="translate(820,440)" d="m0 0h1v7l-3 9h-1v-10l2-2z" fill="#222F41"/>
<path transform="translate(943,327)" d="m0 0 5 1-1 6-5 2z" fill="#F2F1E4"/>
<path transform="translate(456,452)" d="m0 0 6 3 2 2-1 3-2-1v-3l-3 3h-2z" fill="#CE8F41"/>
<path transform="translate(962,415)" d="m0 0 6 1 5 5-2 1-9-5z" fill="#293648"/>
<path transform="translate(948,323)" d="m0 0 3 2-1 9-3-1z" fill="#243143"/>
<path transform="translate(356,461)" d="m0 0h1v12l-3 2 1-13z" fill="#F1ECD8"/>
<path transform="translate(819,451)" d="m0 0 1 3-2 8-4 1 2-11 2 1z" fill="#3C485B"/>
<path transform="translate(319,206)" d="m0 0h6v2l-7 3-1 5-2-1 1-5z" fill="#F2F1E4"/>
<path transform="translate(944,493)" d="m0 0 5 1v4l-6 1v-5z" fill="#C38B48"/>
<path transform="translate(950,465)" d="m0 0h2l-1 5-2 6h-2l1-7z" fill="#F2F1E4"/>
<path transform="translate(447,331)" d="m0 0 2 1-2 3-9 3-2-2z" fill="#2F3B4E"/>
<path transform="translate(912,506)" d="m0 0h2l-1 11-2-1-1-7z" fill="#F2F1E4"/>
<path transform="translate(1019,224)" d="m0 0 6 2 2 2-2 1-8-1v-3z" fill="#232F41"/>
<path transform="translate(641,213)" d="m0 0 4 1h-2l-1 4-5 1v-4z" fill="#465373"/>
<path transform="translate(414,464)" d="m0 0 4 1-1 5-5-1 1-4z" fill="#C98D43"/>
<path transform="translate(568,256)" d="m0 0h10l-5 4-2 1v-3h-5z" fill="#1C293A"/>
</svg>
